<?xml version="1.0" encoding="iso-8859-1"?>
<!-- Generator: Adobe Illustrator 19.0.0, SVG Export Plug-In . SVG Version: 6.00 Build 0)  -->
<svg xmlns="http://www.w3.org/2000/svg" xmlns:xlink="http://www.w3.org/1999/xlink" version="1.1" id="Layer_1" x="0px" y="0px" viewBox="0 0 512 512" style="enable-background:new 0 0 512 512;" xml:space="preserve" width="512" height="512">
<g>
	<g>
		<g>
			<g>
				<path style="fill:#426175;" d="M476.616,454.292H35.384V165.789c0-9.027,7.318-16.346,16.346-16.346h408.541      c9.027,0,16.346,7.318,16.346,16.346V454.292z"/>
				<rect x="64.901" y="179.908" style="fill:#F2F2F2;" width="382.197" height="232.649"/>
				<rect x="392.417" y="179.908" style="fill:#CDD6DF;" width="54.682" height="232.649"/>
				<path style="fill:#FED066;" d="M256,343.994c-26.084,0-47.625,19.393-51.027,44.544c-9.217-8.664-21.616-13.982-35.264-13.982      c-23.771,0-43.77,16.107-49.707,38h271.996c-5.936-21.893-25.935-38-49.707-38c-13.648,0-26.047,5.318-35.264,13.982      C303.625,363.387,282.084,343.994,256,343.994z"/>
				<path style="fill:#F5B556;" d="M342.291,374.557c-13.648,0-26.047,5.318-35.264,13.982      c-3.402-25.151-24.943-44.544-51.027-44.544c-18.463,0-34.641,9.723-43.73,24.321c20.719,4.49,36.78,23.026,39.961,44.241      h139.768C386.062,390.664,366.063,374.557,342.291,374.557z"/>
				<path style="fill:#CDD6DF;" d="M502.395,442.244H9.605c-5.305,0-9.605,4.3-9.605,9.605v0c0,20.94,16.975,37.915,37.915,37.915      h436.171c20.94,0,37.915-16.975,37.915-37.915v0C512,446.544,507.7,442.244,502.395,442.244z"/>
				<path style="fill:#ABB2BA;" d="M502.395,442.244h-45.873v19.21c0,15.635-12.675,28.31-28.31,28.31h45.874      c20.94,0,37.915-16.975,37.915-37.915v0C512,446.544,507.7,442.244,502.395,442.244z"/>
			</g>
			<g>
				<path style="fill:#426175;" d="M297.216,354.764h-83.684c-5.681,0-9.726-5.518-8.017-10.936l13.239-41.96h73.241l13.239,41.96      C306.942,349.246,302.897,354.764,297.216,354.764z"/>
				<g>
					<g>
						<path style="fill:#5ABFE9;" d="M373.295,324.197l-9.256-56.332c-2.777-16.902-13.266-31.547-28.373-39.617l-66.908-35.742        v94.243l96.661,43.503C369.519,332.097,374.024,328.634,373.295,324.197z"/>
						<path style="fill:#88DBFD;" d="M138.705,324.197l9.256-56.332c2.777-16.902,13.266-31.547,28.373-39.617l66.908-35.742v94.243        l-96.661,43.503C142.481,332.097,137.976,328.634,138.705,324.197z"/>
					</g>
					<g>
						<g>
							<g>
								<path style="fill:#FD715C;" d="M294.56,324.29h-77.121c-5.929,0-10.736-4.807-10.736-10.736V129.767          c0-17.9,4.006-35.573,11.724-51.724l21.965-45.966c6.269-13.12,24.946-13.12,31.215,0l21.965,45.966          c7.718,16.151,11.724,33.824,11.724,51.724v183.787C305.297,319.483,300.49,324.29,294.56,324.29z"/>
							</g>
							<path style="fill:#E5483C;" d="M293.573,78.042l-21.965-45.966c-6.269-13.12-24.946-13.12-31.215,0L228.329,57.32         l9.902,20.722c7.718,16.151,11.724,33.824,11.724,51.724V324.29h44.605c5.93,0,10.736-4.807,10.736-10.736V129.767         C305.297,111.866,301.291,94.193,293.573,78.042z"/>
							<circle style="fill:#F2F2F2;" cx="256" cy="148.577" r="27.426"/>
						</g>
					</g>
				</g>
			</g>
		</g>
		<path style="fill:#F2F2F2;" d="M201.318,442.244v23.927c0,13.03,10.563,23.593,23.593,23.593h62.178    c13.03,0,23.593-10.563,23.593-23.593v-23.927H201.318z"/>
	</g>
</g>















</svg>
